<?xml version="1.0" encoding="utf-8"?>
<!-- Generator: Adobe Illustrator 21.1.0, SVG Export Plug-In . SVG Version: 6.00 Build 0)  -->
<svg version="1.1" id="Capa_1" xmlns="http://www.w3.org/2000/svg" xmlns:xlink="http://www.w3.org/1999/xlink" x="0px" y="0px"
	 viewBox="0 0 392 220" style="enable-background:new 0 0 392 220;" xml:space="preserve">
<style type="text/css">
	.st0{fill:#FFFFFF;}
</style>
<g>
	<path class="st0" d="M198.5,136c10.5-1.2,18.9-9.5,20.1-20c1.6-13.7-9.1-25.4-22.4-25.5v-6.1c0-0.3-0.4-0.5-0.7-0.3l-12.7,9.3
		c-0.2,0.2-0.2,0.5,0,0.6l12.7,9.3c0.3,0.2,0.7,0,0.7-0.3v-6.1c9.4,0.1,16.9,8.1,16.2,17.7c-0.5,8.2-7.2,14.9-15.4,15.4
		c-8.7,0.6-16.1-5.7-17.4-13.9c-0.2-1.5-1.6-2.6-3.1-2.6c-1.9,0-3.4,1.7-3.1,3.6C175.2,128.6,186,137.4,198.5,136z"/>
</g>
</svg>
